<svg width="42" height="42" viewBox="0 0 42 42" fill="none" xmlns="http://www.w3.org/2000/svg">
<path d="M21 41C23.627 41.0034 26.2287 40.4876 28.6556 39.4823C31.0826 38.477 33.2869 37.002 35.142 35.142C37.002 33.2869 38.477 31.0826 39.4823 28.6556C40.4876 26.2287 41.0034 23.627 41 21C41.0034 18.3731 40.4876 15.7714 39.4823 13.3444C38.4769 10.9175 37.0019 8.71312 35.142 6.85802C33.2869 4.99804 31.0826 3.52302 28.6556 2.5177C26.2287 1.51239 23.627 0.996613 21 1.00002C18.3731 0.996668 15.7714 1.51247 13.3444 2.51778C10.9175 3.52309 8.71312 4.99809 6.85802 6.85802C4.99809 8.71312 3.52309 10.9175 2.51778 13.3444C1.51247 15.7714 0.996668 18.3731 1.00002 21C0.996613 23.627 1.51239 26.2287 2.5177 28.6556C3.52302 31.0826 4.99804 33.2869 6.85802 35.142C8.71312 37.0019 10.9175 38.4769 13.3444 39.4823C15.7714 40.4876 18.3731 41.0034 21 41V41Z" stroke="#CC6F43" stroke-linejoin="round"/>
<path fill-rule="evenodd" clip-rule="evenodd" d="M21 32C21.2652 32 21.5196 31.8946 21.7071 31.7071C21.8946 31.5196 22 31.2652 22 31C22 30.7348 21.8946 30.4804 21.7071 30.2929C21.5196 30.1054 21.2652 30 21 30C20.7348 30 20.4804 30.1054 20.2929 30.2929C20.1054 30.4804 20 30.7348 20 31C20 31.2652 20.1054 31.5196 20.2929 31.7071C20.4804 31.8946 20.7348 32 21 32V32Z" fill="#CC6F43"/>
<path d="M21 10V26" stroke="#CC6F43" stroke-linecap="round" stroke-linejoin="round"/>
</svg>
