<svg width="74" height="76" viewBox="0 0 74 76" fill="none" xmlns="http://www.w3.org/2000/svg">
<path d="M22.9791 18.2273H29.1478V24.5628H22.9791V18.2273ZM29.1478 35.7759L22.9791 37.2326V30.8972H29.1478V35.7759ZM29.1478 24.5628H35.3165V30.8982H29.1478V24.5628ZM35.3155 18.2273H41.4842V24.5628H35.3155V18.2273ZM29.1478 15.8196H35.3165V18.2273H29.1478V15.8196Z" fill="white"/>
<path d="M41.4842 37.2326L35.3155 35.701V30.8972H41.4842V37.2326ZM41.4842 24.5628H47.6529V30.8982H41.4842V24.5628ZM47.6529 21.3951H53.8216V24.5628H47.6529V21.3951ZM47.6529 30.8972H53.8216V37.2326H47.6529V30.8972Z" fill="white"/>
<path d="M53.8216 24.5628H55.6141V30.8982H53.8216V24.5628ZM41.4842 37.2326H47.6529V39.2709H41.4842V37.2326ZM53.8216 37.2326H55.9933V39.7702H53.8216V37.2326Z" fill="white"/>
<path d="M22.9791 24.5628H29.1478V30.8982H22.9791V24.5628ZM29.1478 18.2273H35.3165V24.5628H29.1478V18.2273ZM29.1478 30.8972H35.3165V36.3227H29.1478V30.8972ZM29.1478 18.2273H22.9791L23.6821 17.5718L29.1478 16.9163V18.2273ZM41.4842 18.2273H35.3155V16.5184L41.4842 17.5444V18.2273Z" fill="inherit"/>
<path d="M35.3155 24.5628H41.4842V30.8982H35.3155V24.5628ZM47.6529 24.5628H41.4842V19.6819L47.6529 21.0763V24.5628ZM41.4842 30.8972H47.6529V37.2326H41.4842V30.8972ZM47.6529 24.5628H53.8216V30.8982H47.6529V24.5628ZM53.8216 21.4373H55.6141V24.5617H53.8216V21.4373ZM53.8216 30.8972H55.7837V37.2326H53.8216V30.8972ZM47.6529 37.2326H53.8216V40.8996H47.6529V37.2326Z" fill="inherit"/>
<path d="M23.7252 18.4596C26.6914 16.5617 32.3812 13.9914 38.5417 16.8889C42.3331 18.6728 44.3322 21.8479 53.9994 21.2314C54.8114 21.1797 55.5 21.8616 55.5 22.7198V38.6861C55.5 39.3437 55.0652 39.8229 54.5082 40.1153C52.5071 41.1667 47.0352 41.1033 38.5417 36.9444C35.0832 35.2513 29.7336 34.2338 23.6821 38.4666" stroke="black" stroke-width="2" stroke-miterlimit="10" stroke-linecap="round" stroke-linejoin="round"/>
<path d="M19.8639 13.5903V63.1592" stroke="black" stroke-width="2" stroke-miterlimit="10" stroke-linecap="round"/>
</svg>
