<svg width="14" height="14" viewBox="0 0 14 14" fill="none" xmlns="http://www.w3.org/2000/svg">
<path d="M7 0C8.85652 0 10.637 0.737498 11.9497 2.05025C13.2625 3.36301 14 5.14348 14 7C14 8.85652 13.2625 10.637 11.9497 11.9497C10.637 13.2625 8.85652 14 7 14C5.14348 14 3.36301 13.2625 2.05025 11.9497C0.737498 10.637 0 8.85652 0 7C0 5.14348 0.737498 3.36301 2.05025 2.05025C3.36301 0.737498 5.14348 0 7 0V0ZM7.371 2.992C6.557 2.992 5.919 3.223 5.446 3.685C4.962 4.147 4.731 4.785 4.731 5.599H5.985C5.985 5.137 6.073 4.774 6.26 4.521C6.469 4.213 6.81 4.07 7.294 4.07C7.668 4.07 7.965 4.169 8.174 4.378C8.372 4.587 8.482 4.873 8.482 5.236C8.482 5.511 8.383 5.775 8.185 6.017L8.053 6.171C7.338 6.809 6.909 7.271 6.766 7.568C6.612 7.865 6.546 8.228 6.546 8.646V8.8H7.811V8.646C7.811 8.382 7.866 8.151 7.976 7.931C8.075 7.733 8.218 7.546 8.416 7.381C8.944 6.919 9.263 6.622 9.362 6.512C9.626 6.16 9.769 5.709 9.769 5.159C9.769 4.488 9.549 3.96 9.109 3.575C8.669 3.179 8.086 2.992 7.371 2.992V2.992ZM7.173 9.339C6.94872 9.33293 6.73117 9.416 6.568 9.57C6.48744 9.64588 6.42414 9.73819 6.38239 9.84068C6.34064 9.94316 6.32141 10.0534 6.326 10.164C6.326 10.406 6.403 10.604 6.568 10.758C6.72994 10.9152 6.94734 11.0021 7.173 11C7.415 11 7.613 10.923 7.778 10.769C7.86027 10.6916 7.92531 10.5977 7.9689 10.4934C8.01249 10.3892 8.03365 10.277 8.031 10.164C8.03311 10.0537 8.01274 9.94422 7.97114 9.84209C7.92953 9.73997 7.86756 9.64739 7.789 9.57C7.62159 9.41571 7.40058 9.33283 7.173 9.339V9.339Z" fill="#979191"/>
</svg>
