<svg width="42" height="42" fill="none" xmlns="http://www.w3.org/2000/svg"><path d="M21 41a19.937 19.937 0 0014.142-5.858A19.936 19.936 0 0041 21a19.938 19.938 0 00-5.858-14.142A19.937 19.937 0 0021 1 19.938 19.938 0 006.858 6.858 19.938 19.938 0 001 21a19.936 19.936 0 005.858 14.142A19.94 19.94 0 0021 41v0z" stroke="#CC6F43" stroke-linejoin="round"/><path fill-rule="evenodd" clip-rule="evenodd" d="M21 32a1 1 0 100-2 1 1 0 000 2z" fill="#CC6F43"/><path d="M21 10v16" stroke="#CC6F43" stroke-linecap="round" stroke-linejoin="round"/></svg>