<svg width="74" height="76" fill="none" xmlns="http://www.w3.org/2000/svg"><path d="M22.98 18.227h6.168v6.336h-6.169v-6.336zm6.168 17.549l-6.169 1.457v-6.336h6.169v4.879zm0-11.213h6.168v6.335h-6.168v-6.335zm6.168-6.336h6.168v6.336h-6.169v-6.336zm-6.168-2.407h6.168v2.407h-6.168V15.82z" fill="#fff"/><path d="M41.484 37.233L35.315 35.7v-4.804h6.17v6.336zm0-12.67h6.169v6.335h-6.169v-6.335zm6.169-3.168h6.169v3.168h-6.17v-3.168zm0 9.502h6.169v6.336h-6.17v-6.336zm6.169-6.334h1.792v6.335h-1.792v-6.335zm-12.338 12.67h6.169v2.038h-6.169v-2.038zm12.338 0h2.171v2.537h-2.171v-2.537z" fill="#fff"/><path d="M22.98 24.563h6.168v6.335h-6.169v-6.335zm6.168-6.336h6.168v6.336h-6.168v-6.336zm0 12.67h6.168v5.426h-6.168v-5.426zm0-12.67h-6.169l.703-.655 5.466-.656v1.311zm12.336 0h-6.169v-1.709l6.17 1.026v.683z" fill="inherit"/><path d="M35.316 24.563h6.168v6.335h-6.169v-6.335zm12.337 0h-6.169v-4.881l6.169 1.394v3.487zm-6.169 6.334h6.169v6.336h-6.169v-6.336zm6.169-6.334h6.169v6.335h-6.17v-6.335zm6.169-3.126h1.792v3.125h-1.792v-3.125zm0 9.46h1.962v6.336h-1.962v-6.336zm-6.17 6.336h6.17V40.9h-6.17v-3.667z" fill="inherit"/><path d="M23.725 18.46c2.966-1.898 8.656-4.469 14.817-1.571 3.791 1.784 5.79 4.959 15.457 4.342.812-.051 1.501.63 1.501 1.489v15.966c0 .658-.435 1.137-.992 1.43-2 1.05-7.473.987-15.966-3.172-3.459-1.693-8.808-2.71-14.86 1.523" stroke="#000" stroke-width="2" stroke-miterlimit="10" stroke-linecap="round" stroke-linejoin="round"/><path d="M19.864 13.59v49.57" stroke="#000" stroke-width="2" stroke-miterlimit="10" stroke-linecap="round"/></svg>