<svg height="32" width="32" xmlns="http://www.w3.org/2000/svg"><g fill="none" fill-rule="evenodd"><g fill="#169970"><path d="M5.5 7.5H31v18H5.5z" fill-opacity=".05"/><path d="M14.5 9a.75.75 0 100-1.5.75.75 0 000 1.5zm0 10.5a.75.75 0 100-1.5.75.75 0 000 1.5zm4.5-6a.75.75 0 101.5 0 .75.75 0 00-1.5 0zm-10.5 0a.75.75 0 101.5 0 .75.75 0 00-1.5 0zm9.182 3.182a.75.75 0 101.06 1.06.75.75 0 00-1.06-1.06zm-7.425-7.425a.75.75 0 101.061 1.061.75.75 0 00-1.06-1.06zm1.061 7.425a.75.75 0 10-1.06 1.06.75.75 0 001.06-1.06zm7.425-7.425a.75.75 0 10-1.061 1.061.75.75 0 001.06-1.06z"/></g><path d="M1.75 4.5h25.39v18H1.75z" stroke="#169970" stroke-linecap="round" stroke-linejoin="round"/><path d="M1.75 3v26.027" fill="#169970" stroke="#169970" stroke-linecap="round" stroke-linejoin="round"/></g></svg>