<svg width="14" height="14" fill="none" xmlns="http://www.w3.org/2000/svg"><path d="M7 0a7 7 0 110 14A7 7 0 017 0zm.371 2.992c-.814 0-1.452.231-1.925.693-.484.462-.715 1.1-.715 1.914h1.254c0-.462.088-.825.275-1.078.209-.308.55-.451 1.034-.451.374 0 .671.099.88.308.198.209.308.495.308.858 0 .275-.099.539-.297.781l-.132.154c-.715.638-1.144 1.1-1.287 1.397-.154.297-.22.66-.22 1.078V8.8h1.265v-.154c0-.264.055-.495.165-.715.099-.198.242-.385.44-.55.528-.462.847-.759.946-.869.264-.352.407-.803.407-1.353 0-.671-.22-1.199-.66-1.584-.44-.396-1.023-.583-1.738-.583zm-.198 6.347a.848.848 0 00-.605.231.772.772 0 00-.242.594c0 .242.077.44.242.594a.86.86 0 00.605.242c.242 0 .44-.077.605-.231a.804.804 0 00.253-.605.812.812 0 00-.242-.594.874.874 0 00-.616-.231z" fill="#979191"/></svg>