<svg width="30" height="30" fill="none" xmlns="http://www.w3.org/2000/svg"><path d="M15 0a15 15 0 110 30 15 15 0 010-30zm.795 6.411c-1.744 0-3.111.495-4.125 1.485-1.037.99-1.532 2.358-1.532 4.102h2.687c0-.99.189-1.768.59-2.31.447-.66 1.178-.967 2.215-.967.801 0 1.438.213 1.886.66.424.448.66 1.061.66 1.839 0 .59-.212 1.155-.637 1.674l-.283.33c-1.532 1.367-2.451 2.357-2.757 2.993-.33.637-.472 1.414-.472 2.31v.33h2.71v-.33c0-.566.119-1.06.354-1.532.213-.424.519-.825.943-1.179 1.132-.99 1.815-1.626 2.027-1.862.566-.754.873-1.72.873-2.899 0-1.438-.472-2.57-1.415-3.394-.943-.849-2.192-1.25-3.724-1.25zm-.424 13.601a1.817 1.817 0 00-1.297.495 1.654 1.654 0 00-.518 1.273c0 .519.165.943.518 1.273.347.337.813.523 1.297.518.518 0 .943-.165 1.296-.495a1.724 1.724 0 00.542-1.296 1.74 1.74 0 00-.518-1.273 1.873 1.873 0 00-1.32-.495z" fill="#979191"/></svg>